+ filenameToUse=/home/horvathandras/vatic/vatic/public/videouploads/DJI_0054_turas_taposas_kereknyom_homokmegy_20180331_napos_kalaszos_T1.avi
+ filenameNoDot=DJI_0054_turas_taposas_kereknyom_homokmegy_20180331_napos_kalaszos_T1
+ FullUploadPath=/home/horvathandras/vatic/vatic/public/videouploads/DJI_0054_turas_taposas_kereknyom_homokmegy_20180331_napos_kalaszos_T1.avi
+ VideoDataDir=/home/horvathandras/vatic/vatic/videos
+ AvailableObjectTypes='PozitívROI NegatívROI Túrás ~Friss ~1-2Hetes ~Régebbi ~Egyéb1 ~Egyéb2 ~Egyéb3 Rágás ~Friss ~1-2Hetes ~Régebbi ~Egyéb1 ~Egyéb2 ~Egyéb3 Törés ~Friss ~1-2Hetes ~Régebbi ~Egyéb1 ~Egyéb2 ~Egyéb3 Taposás ~Friss ~1-2Hetes ~Régebbi ~Egyéb1 ~Egyéb2 ~Egyéb3 EgészségesNövény Egyéb1 Egyéb2 Egyéb3 Egyéb4 Egyéb5 Bizonytalan Művelőút Gktaposás Vetőhiba Széldöntés Jégkár Belvíz Aszály Erózió EgyszikűGyom KétszikűGyom EgyébNövvédelmiPR'
++ dirname /home/horvathandras/vatic/vatic/vatic_publisher.sh
+ cd /home/horvathandras/vatic/vatic
+ touch /home/horvathandras/vatic/vatic/public/videouploads/DJI_0054_turas_taposas_kereknyom_homokmegy_20180331_napos_kalaszos_T1.avi
+ chmod 744 /home/horvathandras/vatic/vatic/public/videouploads/DJI_0054_turas_taposas_kereknyom_homokmegy_20180331_napos_kalaszos_T1.avi
+ mkdir /home/horvathandras/vatic/vatic/videos/DJI_0054_turas_taposas_kereknyom_homokmegy_20180331_napos_kalaszos_T1
+ turkic extract /home/horvathandras/vatic/vatic/public/videouploads/DJI_0054_turas_taposas_kereknyom_homokmegy_20180331_napos_kalaszos_T1.avi /home/horvathandras/vatic/vatic/videos/DJI_0054_turas_taposas_kereknyom_homokmegy_20180331_napos_kalaszos_T1 --no-resize
ffmpeg version 2.8.14-0ubuntu0.16.04.1 Copyright (c) 2000-2018 the FFmpeg developers
  built with gcc 5.4.0 (Ubuntu 5.4.0-6ubuntu1~16.04.9) 20160609
  configuration: --prefix=/usr --extra-version=0ubuntu0.16.04.1 --build-suffix=-ffmpeg --toolchain=hardened --libdir=/usr/lib/x86_64-linux-gnu --incdir=/usr/include/x86_64-linux-gnu --cc=cc --cxx=g++ --enable-gpl --enable-shared --disable-stripping --disable-decoder=libopenjpeg --disable-decoder=libschroedinger --enable-avresample --enable-avisynth --enable-gnutls --enable-ladspa --enable-libass --enable-libbluray --enable-libbs2b --enable-libcaca --enable-libcdio --enable-libflite --enable-libfontconfig --enable-libfreetype --enable-libfribidi --enable-libgme --enable-libgsm --enable-libmodplug --enable-libmp3lame --enable-libopenjpeg --enable-libopus --enable-libpulse --enable-librtmp --enable-libschroedinger --enable-libshine --enable-libsnappy --enable-libsoxr --enable-libspeex --enable-libssh --enable-libtheora --enable-libtwolame --enable-libvorbis --enable-libvpx --enable-libwavpack --enable-libwebp --enable-libx265 --enable-libxvid --enable-libzvbi --enable-openal --enable-opengl --enable-x11grab --enable-libdc1394 --enable-libiec61883 --enable-libzmq --enable-frei0r --enable-libx264 --enable-libopencv
  libavutil      54. 31.100 / 54. 31.100
  libavcodec     56. 60.100 / 56. 60.100
  libavformat    56. 40.101 / 56. 40.101
  libavdevice    56.  4.100 / 56.  4.100
  libavfilter     5. 40.101 /  5. 40.101
  libavresample   2.  1.  0 /  2.  1.  0
  libswscale      3.  1.101 /  3.  1.101
  libswresample   1.  2.101 /  1.  2.101
  libpostproc    53.  3.100 / 53.  3.100
Input #0, mov,mp4,m4a,3gp,3g2,mj2, from '/home/horvathandras/vatic/vatic/public/videouploads/DJI_0054_turas_taposas_kereknyom_homokmegy_20180331_napos_kalaszos_T1.avi':
  Metadata:
    major_brand     : qt  
    minor_version   : 537986816
    compatible_brands: qt  
    creation_time   : 2018-03-31 10:59:22
    location        : +46.517498+19.173484+30.200
    location-{    : +46.517498+19.173484+30.200
    comment         : DE=None, Mode=P, DSW=0001
  Duration: 00:00:39.44, start: 0.000000, bitrate: 100552 kb/s
    Stream #0:0(eng): Video: h264 (High) (avc1 / 0x31637661), yuv420p(tv, bt709), 3840x2160 [SAR 1:1 DAR 16:9], 100474 kb/s, 29.97 fps, 29.97 tbr, 30k tbn, 59.94 tbc (default)
    Metadata:
      creation_time   : 2018-03-31 10:59:22
      handler_name    : DJI.AVC
      encoder         : AVC encoder
    Stream #0:1(eng): Data: none (priv / 0x76697270), 73 kb/s
    Metadata:
      creation_time   : 2018-03-31 10:59:22
      handler_name    : DJI.Meta
Please use -b:a or -b:v, -b is ambiguous
[swscaler @ 0x2498b20] deprecated pixel format used, make sure you did set range correctly
Output #0, image2, to '/tmp/pyvision-ffmpeg-235844880/%d.jpg':
  Metadata:
    major_brand     : qt  
    minor_version   : 537986816
    compatible_brands: qt  
    comment         : DE=None, Mode=P, DSW=0001
    location        : +46.517498+19.173484+30.200
    location-{    : +46.517498+19.173484+30.200
    encoder         : Lavf56.40.101
    Stream #0:0(eng): Video: mjpeg, yuvj420p(pc), 3840x2160 [SAR 1:1 DAR 16:9], q=2-31, 10000 kb/s, 29.97 fps, 29.97 tbn, 29.97 tbc (default)
    Metadata:
      creation_time   : 2018-03-31 10:59:22
      handler_name    : DJI.AVC
      encoder         : Lavc56.60.100 mjpeg
Stream mapping:
  Stream #0:0 -> #0:0 (h264 (native) -> mjpeg (native))
Press [q] to stop, [?] for help
frame=    1 fps=0.0 q=13.0 size=N/A time=00:00:00.03 bitrate=N/A    frame=    5 fps=4.2 q=22.5 size=N/A time=00:00:00.16 bitrate=N/A    frame=   10 fps=5.9 q=24.8 size=N/A time=00:00:00.33 bitrate=N/A    frame=   16 fps=7.0 q=24.8 size=N/A time=00:00:00.53 bitrate=N/A    frame=   22 fps=7.6 q=24.8 size=N/A time=00:00:00.73 bitrate=N/A    frame=   27 fps=8.0 q=24.8 size=N/A time=00:00:00.90 bitrate=N/A    frame=   31 fps=7.9 q=24.8 size=N/A time=00:00:01.03 bitrate=N/A    frame=   36 fps=8.1 q=24.8 size=N/A time=00:00:01.20 bitrate=N/A    frame=   41 fps=8.3 q=24.8 size=N/A time=00:00:01.36 bitrate=N/A    frame=   46 fps=8.5 q=24.8 size=N/A time=00:00:01.53 bitrate=N/A    frame=   51 fps=8.6 q=24.8 size=N/A time=00:00:01.70 bitrate=N/A    frame=   57 fps=8.7 q=24.8 size=N/A time=00:00:01.90 bitrate=N/A    frame=   62 fps=8.8 q=24.8 size=N/A time=00:00:02.06 bitrate=N/A    frame=   68 fps=8.9 q=24.8 size=N/A time=00:00:02.26 bitrate=N/A    frame=   74 fps=9.0 q=24.8 size=N/A time=00:00:02.46 bitrate=N/A    frame=   80 fps=9.1 q=24.8 size=N/A time=00:00:02.66 bitrate=N/A    frame=   86 fps=9.2 q=24.8 size=N/A time=00:00:02.86 bitrate=N/A    frame=   92 fps=9.2 q=24.8 size=N/A time=00:00:03.06 bitrate=N/A    frame=   98 fps=9.3 q=24.8 size=N/A time=00:00:03.26 bitrate=N/A    frame=  104 fps=9.3 q=24.8 size=N/A time=00:00:03.47 bitrate=N/A    frame=  110 fps=9.4 q=24.8 size=N/A time=00:00:03.67 bitrate=N/A    frame=  116 fps=9.4 q=24.8 size=N/A time=00:00:03.87 bitrate=N/A    frame=  122 fps=9.5 q=24.8 size=N/A time=00:00:04.07 bitrate=N/A    frame=  128 fps=9.5 q=24.8 size=N/A time=00:00:04.27 bitrate=N/A    frame=  134 fps=9.5 q=24.8 size=N/A time=00:00:04.47 bitrate=N/A    frame=  140 fps=9.6 q=24.8 size=N/A time=00:00:04.67 bitrate=N/A    frame=  146 fps=9.6 q=24.8 size=N/A time=00:00:04.87 bitrate=N/A    frame=  151 fps=9.6 q=24.8 size=N/A time=00:00:05.03 bitrate=N/A    frame=  157 fps=9.6 q=24.8 size=N/A time=00:00:05.23 bitrate=N/A    frame=  163 fps=9.7 q=24.8 size=N/A time=00:00:05.43 bitrate=N/A    frame=  169 fps=9.7 q=24.8 size=N/A time=00:00:05.63 bitrate=N/A    frame=  175 fps=9.7 q=24.8 size=N/A time=00:00:05.83 bitrate=N/A    frame=  181 fps=9.7 q=24.8 size=N/A time=00:00:06.03 bitrate=N/A    frame=  187 fps=9.8 q=24.8 size=N/A time=00:00:06.23 bitrate=N/A    frame=  193 fps=9.8 q=24.8 size=N/A time=00:00:06.43 bitrate=N/A    frame=  199 fps=9.8 q=24.8 size=N/A time=00:00:06.63 bitrate=N/A    frame=  205 fps=9.8 q=24.8 size=N/A time=00:00:06.84 bitrate=N/A    frame=  211 fps=9.8 q=24.8 size=N/A time=00:00:07.04 bitrate=N/A    frame=  217 fps=9.8 q=24.8 size=N/A time=00:00:07.24 bitrate=N/A    frame=  223 fps=9.8 q=24.8 size=N/A time=00:00:07.44 bitrate=N/A    frame=  229 fps=9.9 q=24.8 size=N/A time=00:00:07.64 bitrate=N/A    frame=  235 fps=9.9 q=24.8 size=N/A time=00:00:07.84 bitrate=N/A    frame=  241 fps=9.9 q=24.8 size=N/A time=00:00:08.04 bitrate=N/A    frame=  247 fps=9.9 q=24.8 size=N/A time=00:00:08.24 bitrate=N/A    frame=  253 fps=9.9 q=24.8 size=N/A time=00:00:08.44 bitrate=N/A    frame=  259 fps=9.9 q=24.8 size=N/A time=00:00:08.64 bitrate=N/A    frame=  265 fps=9.9 q=24.8 size=N/A time=00:00:08.84 bitrate=N/A    frame=  271 fps=9.9 q=24.8 size=N/A time=00:00:09.04 bitrate=N/A    frame=  277 fps=9.9 q=24.8 size=N/A time=00:00:09.24 bitrate=N/A    frame=  283 fps=9.9 q=24.8 size=N/A time=00:00:09.44 bitrate=N/A    frame=  289 fps= 10 q=24.8 size=N/A time=00:00:09.64 bitrate=N/A    frame=  295 fps= 10 q=24.8 size=N/A time=00:00:09.84 bitrate=N/A    frame=  301 fps=9.9 q=24.8 size=N/A time=00:00:10.04 bitrate=N/A    frame=  307 fps= 10 q=24.8 size=N/A time=00:00:10.24 bitrate=N/A    frame=  313 fps= 10 q=24.8 size=N/A time=00:00:10.44 bitrate=N/A    frame=  319 fps= 10 q=24.8 size=N/A time=00:00:10.64 bitrate=N/A    frame=  325 fps= 10 q=24.8 size=N/A time=00:00:10.84 bitrate=N/A    frame=  331 fps= 10 q=24.8 size=N/A time=00:00:11.04 bitrate=N/A    frame=  337 fps= 10 q=24.8 size=N/A time=00:00:11.24 bitrate=N/A    frame=  343 fps= 10 q=24.8 size=N/A time=00:00:11.44 bitrate=N/A    frame=  349 fps= 10 q=24.8 size=N/A time=00:00:11.64 bitrate=N/A    frame=  355 fps= 10 q=24.8 size=N/A time=00:00:11.84 bitrate=N/A    frame=  361 fps= 10 q=24.8 size=N/A time=00:00:12.04 bitrate=N/A    frame=  367 fps= 10 q=24.8 size=N/A time=00:00:12.24 bitrate=N/A    frame=  373 fps= 10 q=24.8 size=N/A time=00:00:12.44 bitrate=N/A    frame=  379 fps= 10 q=24.8 size=N/A time=00:00:12.64 bitrate=N/A    frame=  385 fps= 10 q=24.8 size=N/A time=00:00:12.84 bitrate=N/A    frame=  391 fps= 10 q=24.8 size=N/A time=00:00:13.04 bitrate=N/A    frame=  397 fps= 10 q=24.8 size=N/A time=00:00:13.24 bitrate=N/A    frame=  403 fps= 10 q=24.8 size=N/A time=00:00:13.44 bitrate=N/A    frame=  409 fps= 10 q=24.8 size=N/A time=00:00:13.64 bitrate=N/A    frame=  415 fps= 10 q=24.8 size=N/A time=00:00:13.84 bitrate=N/A    frame=  421 fps= 10 q=24.8 size=N/A time=00:00:14.04 bitrate=N/A    frame=  427 fps= 10 q=24.8 size=N/A time=00:00:14.24 bitrate=N/A    frame=  433 fps= 10 q=24.8 size=N/A time=00:00:14.44 bitrate=N/A    frame=  439 fps= 10 q=24.8 size=N/A time=00:00:14.64 bitrate=N/A    frame=  445 fps= 10 q=24.8 size=N/A time=00:00:14.84 bitrate=N/A    frame=  451 fps= 10 q=24.8 size=N/A time=00:00:15.04 bitrate=N/A    frame=  457 fps= 10 q=24.8 size=N/A time=00:00:15.24 bitrate=N/A    frame=  463 fps= 10 q=24.8 size=N/A time=00:00:15.44 bitrate=N/A    frame=  469 fps= 10 q=24.8 size=N/A time=00:00:15.64 bitrate=N/A    frame=  475 fps= 10 q=24.8 size=N/A time=00:00:15.84 bitrate=N/A    frame=  481 fps= 10 q=24.8 size=N/A time=00:00:16.04 bitrate=N/A    frame=  487 fps= 10 q=24.8 size=N/A time=00:00:16.24 bitrate=N/A    frame=  493 fps= 10 q=24.8 size=N/A time=00:00:16.44 bitrate=N/A    frame=  499 fps= 10 q=24.8 size=N/A time=00:00:16.64 bitrate=N/A    frame=  505 fps= 10 q=24.8 size=N/A time=00:00:16.85 bitrate=N/A    frame=  511 fps= 10 q=24.8 size=N/A time=00:00:17.05 bitrate=N/A    frame=  517 fps= 10 q=24.8 size=N/A time=00:00:17.25 bitrate=N/A    frame=  523 fps= 10 q=24.8 size=N/A time=00:00:17.45 bitrate=N/A    frame=  529 fps= 10 q=24.8 size=N/A time=00:00:17.65 bitrate=N/A    frame=  535 fps= 10 q=24.8 size=N/A time=00:00:17.85 bitrate=N/A    frame=  541 fps= 10 q=24.8 size=N/A time=00:00:18.05 bitrate=N/A    frame=  547 fps= 10 q=24.8 size=N/A time=00:00:18.25 bitrate=N/A    frame=  553 fps= 10 q=24.8 size=N/A time=00:00:18.45 bitrate=N/A    frame=  559 fps= 10 q=24.8 size=N/A time=00:00:18.65 bitrate=N/A    frame=  565 fps= 10 q=24.8 size=N/A time=00:00:18.85 bitrate=N/A    frame=  571 fps= 10 q=24.8 size=N/A time=00:00:19.05 bitrate=N/A    frame=  577 fps= 10 q=24.8 size=N/A time=00:00:19.25 bitrate=N/A    frame=  583 fps= 10 q=24.8 size=N/A time=00:00:19.45 bitrate=N/A    frame=  589 fps= 10 q=24.8 size=N/A time=00:00:19.65 bitrate=N/A    frame=  595 fps= 10 q=24.8 size=N/A time=00:00:19.85 bitrate=N/A    frame=  601 fps= 10 q=24.8 size=N/A time=00:00:20.05 bitrate=N/A    frame=  607 fps= 10 q=24.8 size=N/A time=00:00:20.25 bitrate=N/A    frame=  613 fps= 10 q=24.8 size=N/A time=00:00:20.45 bitrate=N/A    frame=  619 fps= 10 q=24.8 size=N/A time=00:00:20.65 bitrate=N/A    frame=  625 fps= 10 q=24.8 size=N/A time=00:00:20.85 bitrate=N/A    frame=  631 fps= 10 q=24.8 size=N/A time=00:00:21.05 bitrate=N/A    frame=  637 fps= 10 q=24.8 size=N/A time=00:00:21.25 bitrate=N/A    frame=  643 fps= 10 q=24.8 size=N/A time=00:00:21.45 bitrate=N/A    frame=  649 fps= 10 q=24.8 size=N/A time=00:00:21.65 bitrate=N/A    frame=  655 fps= 10 q=24.8 size=N/A time=00:00:21.85 bitrate=N/A    frame=  661 fps= 10 q=24.8 size=N/A time=00:00:22.05 bitrate=N/A    frame=  667 fps= 10 q=24.8 size=N/A time=00:00:22.25 bitrate=N/A    frame=  673 fps= 10 q=24.8 size=N/A time=00:00:22.45 bitrate=N/A    frame=  679 fps= 10 q=24.8 size=N/A time=00:00:22.65 bitrate=N/A    frame=  685 fps= 10 q=24.8 size=N/A time=00:00:22.85 bitrate=N/A    frame=  691 fps= 10 q=24.8 size=N/A time=00:00:23.05 bitrate=N/A    frame=  697 fps= 10 q=24.8 size=N/A time=00:00:23.25 bitrate=N/A    frame=  703 fps= 10 q=24.8 size=N/A time=00:00:23.45 bitrate=N/A    frame=  709 fps= 10 q=24.8 size=N/A time=00:00:23.65 bitrate=N/A    frame=  715 fps= 10 q=24.8 size=N/A time=00:00:23.85 bitrate=N/A    frame=  721 fps= 10 q=24.8 size=N/A time=00:00:24.05 bitrate=N/A    frame=  727 fps= 10 q=24.8 size=N/A time=00:00:24.25 bitrate=N/A    frame=  733 fps= 10 q=24.8 size=N/A time=00:00:24.45 bitrate=N/A    frame=  739 fps= 10 q=24.8 size=N/A time=00:00:24.65 bitrate=N/A    frame=  745 fps= 10 q=24.8 size=N/A time=00:00:24.85 bitrate=N/A    frame=  751 fps= 10 q=24.8 size=N/A time=00:00:25.05 bitrate=N/A    frame=  757 fps= 10 q=24.8 size=N/A time=00:00:25.25 bitrate=N/A    frame=  763 fps= 10 q=24.8 size=N/A time=00:00:25.45 bitrate=N/A    frame=  769 fps= 10 q=24.8 size=N/A time=00:00:25.65 bitrate=N/A    frame=  775 fps= 10 q=24.8 size=N/A time=00:00:25.85 bitrate=N/A    frame=  781 fps= 10 q=24.8 size=N/A time=00:00:26.05 bitrate=N/A    frame=  787 fps= 10 q=24.8 size=N/A time=00:00:26.25 bitrate=N/A    frame=  793 fps= 10 q=24.8 size=N/A time=00:00:26.45 bitrate=N/A    frame=  799 fps= 10 q=24.8 size=N/A time=00:00:26.65 bitrate=N/A    frame=  805 fps= 10 q=24.8 size=N/A time=00:00:26.86 bitrate=N/A    frame=  811 fps= 10 q=24.8 size=N/A time=00:00:27.06 bitrate=N/A    frame=  817 fps= 10 q=24.8 size=N/A time=00:00:27.26 bitrate=N/A    frame=  823 fps= 10 q=24.8 size=N/A time=00:00:27.46 bitrate=N/A    frame=  829 fps= 10 q=24.8 size=N/A time=00:00:27.66 bitrate=N/A    frame=  835 fps= 10 q=24.8 size=N/A time=00:00:27.86 bitrate=N/A    frame=  841 fps= 10 q=24.8 size=N/A time=00:00:28.06 bitrate=N/A    frame=  847 fps= 10 q=24.8 size=N/A time=00:00:28.26 bitrate=N/A    frame=  853 fps= 10 q=24.8 size=N/A time=00:00:28.46 bitrate=N/A    frame=  859 fps= 10 q=24.8 size=N/A time=00:00:28.66 bitrate=N/A    frame=  865 fps= 10 q=24.8 size=N/A time=00:00:28.86 bitrate=N/A    frame=  871 fps= 10 q=24.8 size=N/A time=00:00:29.06 bitrate=N/A    frame=  877 fps= 10 q=24.8 size=N/A time=00:00:29.26 bitrate=N/A    frame=  883 fps= 10 q=24.8 size=N/A time=00:00:29.46 bitrate=N/A    frame=  889 fps= 10 q=24.8 size=N/A time=00:00:29.66 bitrate=N/A    frame=  895 fps= 10 q=24.8 size=N/A time=00:00:29.86 bitrate=N/A    frame=  901 fps= 10 q=24.8 size=N/A time=00:00:30.06 bitrate=N/A    frame=  907 fps= 10 q=24.8 size=N/A time=00:00:30.26 bitrate=N/A    frame=  913 fps= 10 q=24.8 size=N/A time=00:00:30.46 bitrate=N/A    frame=  919 fps= 10 q=24.8 size=N/A time=00:00:30.66 bitrate=N/A    frame=  925 fps= 10 q=24.8 size=N/A time=00:00:30.86 bitrate=N/A    frame=  931 fps= 10 q=24.8 size=N/A time=00:00:31.06 bitrate=N/A    frame=  937 fps= 10 q=24.8 size=N/A time=00:00:31.26 bitrate=N/A    frame=  943 fps= 10 q=24.8 size=N/A time=00:00:31.46 bitrate=N/A    frame=  949 fps= 10 q=24.8 size=N/A time=00:00:31.66 bitrate=N/A    frame=  955 fps= 10 q=24.8 size=N/A time=00:00:31.86 bitrate=N/A    frame=  961 fps= 10 q=24.8 size=N/A time=00:00:32.06 bitrate=N/A    frame=  967 fps= 10 q=24.8 size=N/A time=00:00:32.26 bitrate=N/A    frame=  973 fps= 10 q=24.8 size=N/A time=00:00:32.46 bitrate=N/A    frame=  979 fps= 10 q=24.8 size=N/A time=00:00:32.66 bitrate=N/A    frame=  985 fps= 10 q=24.8 size=N/A time=00:00:32.86 bitrate=N/A    frame=  991 fps= 10 q=24.8 size=N/A time=00:00:33.06 bitrate=N/A    frame=  997 fps= 10 q=24.8 size=N/A time=00:00:33.26 bitrate=N/A    frame= 1003 fps= 10 q=24.8 size=N/A time=00:00:33.46 bitrate=N/A    frame= 1009 fps= 10 q=24.8 size=N/A time=00:00:33.66 bitrate=N/A    frame= 1015 fps= 10 q=24.8 size=N/A time=00:00:33.86 bitrate=N/A    frame= 1021 fps= 10 q=24.8 size=N/A time=00:00:34.06 bitrate=N/A    frame= 1027 fps= 10 q=24.8 size=N/A time=00:00:34.26 bitrate=N/A    frame= 1033 fps= 10 q=24.8 size=N/A time=00:00:34.46 bitrate=N/A    frame= 1039 fps= 10 q=24.8 size=N/A time=00:00:34.66 bitrate=N/A    frame= 1045 fps= 10 q=24.8 size=N/A time=00:00:34.86 bitrate=N/A    frame= 1051 fps= 10 q=24.8 size=N/A time=00:00:35.06 bitrate=N/A    frame= 1057 fps= 10 q=24.8 size=N/A time=00:00:35.26 bitrate=N/A    frame= 1063 fps= 10 q=24.8 size=N/A time=00:00:35.46 bitrate=N/A    frame= 1069 fps= 10 q=24.8 size=N/A time=00:00:35.66 bitrate=N/A    frame= 1075 fps= 10 q=24.8 size=N/A time=00:00:35.86 bitrate=N/A    frame= 1081 fps= 10 q=24.8 size=N/A time=00:00:36.06 bitrate=N/A    frame= 1087 fps= 10 q=24.8 size=N/A time=00:00:36.26 bitrate=N/A    frame= 1093 fps= 10 q=24.8 size=N/A time=00:00:36.46 bitrate=N/A    frame= 1099 fps= 10 q=24.8 size=N/A time=00:00:36.66 bitrate=N/A    frame= 1105 fps= 10 q=24.8 size=N/A time=00:00:36.87 bitrate=N/A    frame= 1111 fps= 10 q=24.8 size=N/A time=00:00:37.07 bitrate=N/A    frame= 1117 fps= 10 q=24.8 size=N/A time=00:00:37.27 bitrate=N/A    frame= 1123 fps= 10 q=24.8 size=N/A time=00:00:37.47 bitrate=N/A    frame= 1129 fps= 10 q=24.8 size=N/A time=00:00:37.67 bitrate=N/A    frame= 1135 fps= 10 q=24.8 size=N/A time=00:00:37.87 bitrate=N/A    frame= 1141 fps= 10 q=24.8 size=N/A time=00:00:38.07 bitrate=N/A    frame= 1147 fps= 10 q=24.8 size=N/A time=00:00:38.27 bitrate=N/A    frame= 1153 fps= 10 q=24.8 size=N/A time=00:00:38.47 bitrate=N/A    frame= 1159 fps= 10 q=24.8 size=N/A time=00:00:38.67 bitrate=N/A    frame= 1165 fps= 10 q=24.8 size=N/A time=00:00:38.87 bitrate=N/A    frame= 1171 fps= 10 q=24.8 size=N/A time=00:00:39.07 bitrate=N/A    frame= 1177 fps= 10 q=24.8 size=N/A time=00:00:39.27 bitrate=N/A    frame= 1182 fps= 10 q=24.8 size=N/A time=00:00:39.43 bitrate=N/A    frame= 1182 fps= 10 q=24.8 Lsize=N/A time=00:00:39.43 bitrate=N/A    
video:624033kB audio:0kB subtitle:0kB other streams:0kB global headers:0kB muxing overhead: unknown
+ turkic load DJI_0054_turas_taposas_kereknyom_homokmegy_20180331_napos_kalaszos_T1 /home/horvathandras/vatic/vatic/videos/DJI_0054_turas_taposas_kereknyom_homokmegy_20180331_napos_kalaszos_T1 $'Pozit\303\255vROI' $'Negat\303\255vROI' $'T\303\272r\303\241s' '~Friss' '~1-2Hetes' '~Régebbi' '~Egyéb1' '~Egyéb2' '~Egyéb3' $'R\303\241g\303\241s' '~Friss' '~1-2Hetes' '~Régebbi' '~Egyéb1' '~Egyéb2' '~Egyéb3' $'T\303\266r\303\251s' '~Friss' '~1-2Hetes' '~Régebbi' '~Egyéb1' '~Egyéb2' '~Egyéb3' $'Tapos\303\241s' '~Friss' '~1-2Hetes' '~Régebbi' '~Egyéb1' '~Egyéb2' '~Egyéb3' $'Eg\303\251szs\303\251gesN\303\266v\303\251ny' $'Egy\303\251b1' $'Egy\303\251b2' $'Egy\303\251b3' $'Egy\303\251b4' $'Egy\303\251b5' Bizonytalan $'M\305\261vel\305\221\303\272t' $'Gktapos\303\241s' $'Vet\305\221hiba' $'Sz\303\251ld\303\266nt\303\251s' $'J\303\251gk\303\241r' $'Belv\303\255z' $'Asz\303\241ly' $'Er\303\263zi\303\263' $'Egyszik\305\261Gyom' $'K\303\251tszik\305\261Gyom' $'Egy\303\251bN\303\266vv\303\251delmiPR' --offline --title '$filenameNoDot Video' --length 1000 --description 'vatic annotation'
+ turkic publish --offline
+ mkdir /home/horvathandras/vatic/vatic/public/videothumbnails/DJI_0054_turas_taposas_kereknyom_homokmegy_20180331_napos_kalaszos_T1
+ cp /home/horvathandras/vatic/vatic/videos/DJI_0054_turas_taposas_kereknyom_homokmegy_20180331_napos_kalaszos_T1/0/0/31.jpg /home/horvathandras/vatic/vatic/public/videothumbnails/DJI_0054_turas_taposas_kereknyom_homokmegy_20180331_napos_kalaszos_T1/thumb.jpg
